HIERARCHY
ROOT hips
{
  OFFSET 0 10.6860622 2.3727825e-15
  CHANNELS 6 Xposition Yposition Zposition Yrotation Xrotation Zrotation
  JOINT leftUpperLeg
  {
    OFFSET 0.6642549969 -0.9402397400000004 0
    CHANNELS 3 Yrotation Xrotation Zrotation
    JOINT leftLowerLeg
    {
      OFFSET 0 -3.997221335632195 0
      CHANNELS 3 Yrotation Xrotation Zrotation
      JOINT leftFoot
      {
        OFFSET -0.13777839790000004 -4.6145792000000005 -0.22186036399999998
        CHANNELS 3 Yrotation Xrotation Zrotation
        JOINT leftToes
        {
          OFFSET -0.03777410834999995 -0.9130806927000008 0.85230013
          CHANNELS 3 Yrotation Xrotation Zrotation
          End Site
          {
            OFFSET -0.03777410834999995 -0.9130806927000008 0.85230013
          }
        }
      }
    }
  }
  JOINT rightUpperLeg
  {
    OFFSET -0.6642778626 -0.9402397400000004 0
    CHANNELS 3 Yrotation Xrotation Zrotation
    JOINT rightLowerLeg
    {
      OFFSET 0 -3.997221452859387 0
      CHANNELS 3 Yrotation Xrotation Zrotation
      JOINT rightFoot
      {
        OFFSET 0.1377926176 -4.6145792000000005 -0.22185782299999995
        CHANNELS 3 Yrotation Xrotation Zrotation
        JOINT rightToes
        {
          OFFSET 0.037780746850000047 -0.9130806927000008 0.85230167
          CHANNELS 3 Yrotation Xrotation Zrotation
          End Site
          {
            OFFSET 0.037780746850000047 -0.9130806927000008 0.85230167
          }
        }
      }
    }
  }
  JOINT spine
  {
    OFFSET 0 0.13988381660000015 0
    CHANNELS 3 Yrotation Xrotation Zrotation
    JOINT chest
    {
      OFFSET 0 0.6191039003973773 0
      CHANNELS 3 Yrotation Xrotation Zrotation
      JOINT upperChest
      {
        OFFSET 0 0.9855186130586943 0
        CHANNELS 3 Yrotation Xrotation Zrotation
        JOINT leftShoulder
        {
          OFFSET 0.1807663869 1.5087829790000005 0
          CHANNELS 3 Yrotation Xrotation Zrotation
          JOINT leftUpperArm
          {
            OFFSET 0.5985063006419806 0 0
            CHANNELS 3 Yrotation Xrotation Zrotation
            JOINT leftLowerArm
            {
              OFFSET 2.2993332369501065 0 0
              CHANNELS 3 Yrotation Xrotation Zrotation
              JOINT leftHand
              {
                OFFSET 2.395047042602395 0 0
                CHANNELS 3 Yrotation Xrotation Zrotation
                JOINT leftIndexProximal
                {
                  OFFSET 0.5766295810000004 0.04556643899499946 0.17265095988184
                  CHANNELS 3 Yrotation Xrotation Zrotation
                  JOINT leftIndexIntermediate
                  {
                    OFFSET 0.2957229000000008 -0.019352197700001517 -0.007932640616999987
                    CHANNELS 3 Yrotation Xrotation Zrotation
                    JOINT leftIndexDistal
                    {
                      OFFSET 0.19008243099999922 -0.012484908149998475 -0.002786250786000012
                      CHANNELS 3 Yrotation Xrotation Zrotation
                      End Site
                      {
                        OFFSET 0.19008243099999922 -0.012484908149998475 -0.002786250786000012
                      }
                    }
                  }
                }
                JOINT leftMiddleProximal
                {
                  OFFSET 0.5834975091000001 0.0524350405149987 0.02204081888183999
                  CHANNELS 3 Yrotation Xrotation Zrotation
                  JOINT leftMiddleIntermediate
                  {
                    OFFSET 0.33880573540000003 -0.019871473270000717 -0.00000971183179999946
                    CHANNELS 3 Yrotation Xrotation Zrotation
                    JOINT leftMiddleDistal
                    {
                      OFFSET 0.20676022730000088 -0.012221336379999448 0.0001471936708000235
                      CHANNELS 3 Yrotation Xrotation Zrotation
                      End Site
                      {
                        OFFSET 0.20676022730000088 -0.012221336379999448 0.0001471936708000235
                      }
                    }
                  }
                }
                JOINT leftLittleProximal
                {
                  OFFSET 0.5344154683999995 -0.012880921405001189 -0.24414037221816004
                  CHANNELS 3 Yrotation Xrotation Zrotation
                  JOINT leftLittleIntermediate
                  {
                    OFFSET 0.21758961730000093 -0.011650919939999227 0.011893592810000034
                    CHANNELS 3 Yrotation Xrotation Zrotation
                    JOINT leftLittleDistal
                    {
                      OFFSET 0.1475273964999999 -0.008152365682999818 0.006001092492999946
                      CHANNELS 3 Yrotation Xrotation Zrotation
                      End Site
                      {
                        OFFSET 0.1475273964999999 -0.008152365682999818 0.006001092492999946
                      }
                    }
                  }
                }
                JOINT leftRingProximal
                {
                  OFFSET 0.5799399463000003 0.026911854694997794 -0.12150566991816003
                  CHANNELS 3 Yrotation Xrotation Zrotation
                  JOINT leftRingIntermediate
                  {
                    OFFSET 0.26167887460000006 -0.013480186499999602 0.010996293000000053
                    CHANNELS 3 Yrotation Xrotation Zrotation
                    JOINT leftRingDistal
                    {
                      OFFSET 0.17667108799999987 -0.008990287899999228 0.0055541023999999065
                      CHANNELS 3 Yrotation Xrotation Zrotation
                      End Site
                      {
                        OFFSET 0.17667108799999987 -0.008990287899999228 0.0055541023999999065
                      }
                    }
                  }
                }
                JOINT leftThumbProximal
                {
                  OFFSET 0.11018806699999972 -0.09448718900500053 0.17047963138184
                  CHANNELS 3 Yrotation Xrotation Zrotation
                  JOINT leftThumbIntermediate
                  {
                    OFFSET 0.31062601459999983 -0.08126270900000132 0.15443142000000007
                    CHANNELS 3 Yrotation Xrotation Zrotation
                    JOINT leftThumbDistal
                    {
                      OFFSET 0.21627175790000086 -0.08833193599999878 0.018771167799999988
                      CHANNELS 3 Yrotation Xrotation Zrotation
                      End Site
                      {
                        OFFSET 0.21627175790000086 -0.08833193599999878 0.018771167799999988
                      }
                    }
                  }
                }
              }
            }
          }
        }
        JOINT neck
        {
          OFFSET 0 1.5463305265074576 0
          CHANNELS 3 Yrotation Xrotation Zrotation
          JOINT head
          {
            OFFSET 0 0.8456443600000344 0
            CHANNELS 3 Yrotation Xrotation Zrotation
            JOINT leftEye
            {
              OFFSET 0.30408573140000006 0.5104519199999995 0.1276382305
              CHANNELS 3 Yrotation Xrotation Zrotation
              End Site
              {
                OFFSET 0.30408573140000006 0.5104519199999995 0.1276382305
              }
            }
            JOINT rightEye
            {
              OFFSET -0.30409491089999996 0.5104519199999995 0.1276379445
              CHANNELS 3 Yrotation Xrotation Zrotation
              End Site
              {
                OFFSET -0.30409491089999996 0.5104519199999995 0.1276379445
              }
            }
            JOINT jaw
            {
              OFFSET -3.155239131000001e-7 -0.11984121820000082 0.60178107
              CHANNELS 3 Yrotation Xrotation Zrotation
              End Site
              {
                OFFSET -3.155239131000001e-7 -0.11984121820000082 0.60178107
              }
            }
          }
        }
        JOINT rightShoulder
        {
          OFFSET -0.1807303465 1.5087829790000005 0
          CHANNELS 3 Yrotation Xrotation Zrotation
          JOINT rightUpperArm
          {
            OFFSET -0.5985063796536958 0 0
            CHANNELS 3 Yrotation Xrotation Zrotation
            JOINT rightLowerArm
            {
              OFFSET -2.2993322059002854 0 0
              CHANNELS 3 Yrotation Xrotation Zrotation
              JOINT rightHand
              {
                OFFSET -2.395045314457259 0 0
                CHANNELS 3 Yrotation Xrotation Zrotation
                JOINT rightIndexProximal
                {
                  OFFSET -0.5764487688300002 0.0441371204405987 0.17361932004999997
                  CHANNELS 3 Yrotation Xrotation Zrotation
                  JOINT rightIndexIntermediate
                  {
                    OFFSET -0.29573011380000047 -0.01934826376999843 -0.007698921482999974
                    CHANNELS 3 Yrotation Xrotation Zrotation
                    JOINT rightIndexDistal
                    {
                      OFFSET -0.19008373999999884 -0.012503266380000655 -0.0026365778999999897
                      CHANNELS 3 Yrotation Xrotation Zrotation
                      End Site
                      {
                        OFFSET -0.19008373999999884 -0.012503266380000655 -0.0026365778999999897
                      }
                    }
                  }
                }
                JOINT rightMiddleProximal
                {
                  OFFSET -0.5834852037300005 0.05211639405060153 0.02307162440000001
                  CHANNELS 3 Yrotation Xrotation Zrotation
                  JOINT rightMiddleIntermediate
                  {
                    OFFSET -0.33880114510000003 -0.019952774050000954 0.0002455003561999819
                    CHANNELS 3 Yrotation Xrotation Zrotation
                    JOINT rightMiddleDistal
                    {
                      OFFSET -0.20675694929999955 -0.012273788999999091 0.00030209124000002766
                      CHANNELS 3 Yrotation Xrotation Zrotation
                      End Site
                      {
                        OFFSET -0.20675694929999955 -0.012273788999999091 0.00030209124000002766
                      }
                    }
                  }
                }
                JOINT rightLittleProximal
                {
                  OFFSET -0.5346811737299992 -0.011214256288399227 -0.24363941305000003
                  CHANNELS 3 Yrotation Xrotation Zrotation
                  JOINT rightLittleIntermediate
                  {
                    OFFSET -0.21757715980000092 -0.011771559690000988 0.01201554387
                    CHANNELS 3 Yrotation Xrotation Zrotation
                    JOINT rightLittleDistal
                    {
                      OFFSET -0.1475201849000004 -0.00822055339600003 0.006082065407000015
                      CHANNELS 3 Yrotation Xrotation Zrotation
                      End Site
                      {
                        OFFSET -0.1475201849000004 -0.00822055339600003 0.006082065407000015
                      }
                    }
                  }
                }
                JOINT rightRingProximal
                {
                  OFFSET -0.5800810755299999 0.027657985680600072 -0.12066365025000003
                  CHANNELS 3 Yrotation Xrotation Zrotation
                  JOINT rightRingIntermediate
                  {
                    OFFSET -0.26166445029999974 -0.013623118409999302 0.011164098990000045
                    CHANNELS 3 Yrotation Xrotation Zrotation
                    JOINT rightRingDistal
                    {
                      OFFSET -0.17666387530000027 -0.009072900100000503 0.005668185599999959
                      CHANNELS 3 Yrotation Xrotation Zrotation
                      End Site
                      {
                        OFFSET -0.17666387530000027 -0.009072900100000503 0.005668185599999959
                      }
                    }
                  }
                }
                JOINT rightThumbProximal
                {
                  OFFSET -0.10997596379000074 -0.09577489355940072 0.16989765924999997
                  CHANNELS 3 Yrotation Xrotation Zrotation
                  JOINT rightThumbIntermediate
                  {
                    OFFSET -0.31036620999999986 -0.08229339117999834 0.15440884469999996
                    CHANNELS 3 Yrotation Xrotation Zrotation
                    JOINT rightThumbDistal
                    {
                      OFFSET -0.21631306399999906 -0.08825326400000111 0.018656797720000014
                      CHANNELS 3 Yrotation Xrotation Zrotation
                      End Site
                      {
                        OFFSET -0.21631306399999906 -0.08825326400000111 0.018656797720000014
                      }
                    }
                  }
                }
              }
            }
          }
        }
      }
    }
  }
}
MOTION
Frames: 7
Frame Time: 0.03333333333333333
5.366740723532839 -6.201945801549336 3.410947186674195 -0.012537201196659012 -51.00538538952647 -179.9940210235081 41.07278813056582 1.6202263442628027 52.71487031478039 -20.299376254353074 64.79565385866191 28.76206372994889 -23.957304792824374 11.787142480010052 -21.75961811543202 0 0 0 -41.334338679112705 0.1409088789508213 -53.49145357685276 20.90707302467588 64.33608497022587 -28.322013191582773 25.08135983631298 12.33224094316262 20.473572521796125 0 0 0 1.588433159706654e-18 -13.964473187884174 -1.9453520101658083e-19 0.7828679566438804 2.5037928468898247 -0.7573573982850599 0 0 0 17.935325744022837 0.9341101966748726 6.776878333367618 26.87286547044792 58.275079786126184 14.48371179679014 -74.77438400467375 43.74975934495798 -39.19625760272838 8.272305051849253 -1.5203468251960353 0.34415009097249494 0 0 0 0 0 0 0 0 0 0 0 0 0 0 0 0 0 0 0 0 0 0 0 0 0 0 0 0 0 0 0 0 0 0 0 0 0 0 0 0 0 0 0 0 0 0 17.52098252285569 0 0 21.917876136453817 0 0 0 0 0 0 0 0 0 0 -17.9528703917566 0.9297099056023282 -6.798003828993511 -29.488523963401548 58.08047285307386 -14.500129569970454 74.75568966778877 43.77158140836429 39.1664411220082 -8.26510779806892 -1.521330398746762 -0.35819454600944645 0 0 0 0 0 0 0 0 0 0 0 0 0 0 0 0 0 0 0 0 0 0 0 0 0 0 0 0 0 0 0 0 0 0 0 0 0 0 0 0 0 0 0 0 0
5.366740723532839 -6.201945801549336 3.410947186674195 -0.012537201196659012 -51.00538538952647 -179.9940210235081 41.034765204580026 1.916609681455835 52.58566118583981 -20.299376254353074 64.79565385866191 28.76206372994889 -23.72891842946869 11.750787824074445 -21.958850200105633 0 0 0 -41.300685566449815 0.5390645714974368 -53.31069607005252 20.90707302467588 64.33608497022587 -28.322013191582773 24.766197020235747 12.280094668932755 20.753614776059095 0 0 0 0 -14.214578410975891 0 0.7831567429340016 2.904385923824843 -0.7518801950285653 0 0 0 17.935325744022837 0.9341101966748726 6.776878333367618 26.859707428168555 58.27604098966286 14.48359313055637 -74.77438400467375 43.74975934495798 -39.19625760272838 8.272305051849253 -1.5203468251960353 0.34415009097249494 0 0 0 0 0 0 0 0 0 0 0 0 0 0 0 0 0 0 0 0 0 0 0 0 0 0 0 0 0 0 0 0 0 0 0 0 0 0 0 0 0 0 0 0 0 0 17.52098252285569 0 0 21.341041299463058 0 0 0 0 0 0 0 0 0 0 -17.9528703917566 0.9297099056023282 -6.798003828993511 -29.488523963401548 58.08047285307386 -14.500129569970454 74.75568966778877 43.77158140836429 39.1664411220082 -8.26510779806892 -1.521330398746762 -0.35819454600944645 0 0 0 0 0 0 0 0 0 0 0 0 0 0 0 0 0 0 0 0 0 0 0 0 0 0 0 0 0 0 0 0 0 0 0 0 0 0 0 0 0 0 0 0 0
5.366740723532839 -6.201945801549336 3.410947186674195 -0.012537201196659012 -51.00538538952647 -179.9940210235081 40.99606174479549 2.2129075203656696 52.45623009476869 -20.299376254353074 64.79565385866191 28.76206372994889 -23.500445217413887 11.71521486065262 -22.158197188361054 0 0 0 -41.26577602432484 0.9370758546461591 -53.12969863598722 20.90707302467588 64.33608497022587 -28.322013191582773 24.45085649001018 12.229458686952487 21.03387109291518 0 0 0 1.5910837176487505e-18 -14.464680105200701 -2.0191309159341466e-19 0.7834849961004878 3.304958878697469 -0.7463998914614427 0 0 0 17.935325744022837 0.9341101966748726 6.776878333367618 26.846542843544775 58.27699572440268 14.483469741560869 -74.77438400467375 43.74975934495798 -39.19625760272838 8.272305051849253 -1.5203468251960353 0.34415009097249494 0 0 0 0 0 0 0 0 0 0 0 0 0 0 0 0 0 0 0 0 0 0 0 0 0 0 0 0 0 0 0 0 0 0 0 0 0 0 0 0 0 0 0 0 0 0 17.52098252285569 0 0 20.764257009048336 0 0 0 0 0 0 0 0 0 0 -17.9528703917566 0.9297099056023282 -6.798003828993511 -29.488523963401548 58.08047285307386 -14.500129569970454 74.75568966778877 43.77158140836429 39.1664411220082 -8.265106952865034 -1.521329437912726 -0.35819454600944645 0 0 0 0 0 0 0 0 0 0 0 0 0 0 0 0 0 0 0 0 0 0 0 0 0 0 0 0 0 0 0 0 0 0 0 0 0 0 0 0 0 0 0 0 0
5.366740723532839 -6.201945801549336 3.410947186674195 -0.012537201196659012 -51.00538538952647 -179.9940210235081 40.95668872125683 2.5091086179902065 52.32656173897552 -20.299376254353074 64.79565385866191 28.76206372994889 -23.271888949299534 11.680422401861842 -22.35765429179368 0 0 0 -41.22960915891498 1.334958523314285 -52.94843391739861 20.90707302467588 64.33608497022587 -28.322013191582773 24.135349247167515 12.180330341251361 21.31431790251651 0 0 0 0 -14.714771556838869 0 0.7838508242235355 3.705503902120856 -0.7409141024411169 0 0 0 17.935325744022837 0.9341101966748726 6.776878333367618 26.833373186346385 58.27795048487893 14.483341524928166 -74.77438400467375 43.74975934495798 -39.19625760272838 8.272305051849253 -1.5203468251960353 0.34415009097249494 0 0 0 0 0 0 0 0 0 0 0 0 0 0 0 0 0 0 0 0 0 0 0 0 0 0 0 0 0 0 0 0 0 0 0 0 0 0 0 0 0 0 0 0 0 0 17.52098252285569 0 0 20.187568262178434 0 0 0 0 0 0 0 0 0 0 -17.9528703917566 0.9297099056023282 -6.798003828993511 -29.488523963401548 58.08047285307386 -14.500129569970454 74.75568966778877 43.77158140836429 39.1664411220082 -8.265108643272802 -1.5213305055060993 -0.35819454600944645 0 0 0 0 0 0 0 0 0 0 0 0 0 0 0 0 0 0 0 0 0 0 0 0 0 0 0 0 0 0 0 0 0 0 0 0 0 0 0 0 0 0 0 0 0
5.366740723532839 -6.201945801549336 3.410947186674195 -0.012537201196659012 -51.00538538952647 -179.9940210235081 40.91663323296219 2.805178732555304 52.1967003870727 -20.299376254353074 64.79565385866191 28.76206372994889 -23.043252774007563 11.64641362740403 -22.557211560119608 0 0 0 -41.19217470137351 1.7326665334046067 -52.76692229668642 20.90707302467588 64.33608497022587 -28.322013191582773 23.819711152393648 12.132727095933301 21.594961635321575 0 0 0 -2.0933537259969914e-19 -14.96485573652389 1.5938370032199888e-18 0.7842552519599731 4.106009090119273 -0.7354245756110633 0 0 0 17.935325744022837 0.9341101966748726 6.776878333367618 26.820215945114604 58.27890527109396 14.483221266903387 -74.77438400467375 43.74975934495798 -39.19625760272838 8.272305051849253 -1.5203468251960353 0.34415009097249494 0 0 0 0 0 0 0 0 0 0 0 0 0 0 0 0 0 0 0 0 0 0 0 0 0 0 0 0 0 0 0 0 0 0 0 0 0 0 0 0 0 0 0 0 0 0 17.52098252285569 0 0 19.610992020026135 0 0 0 0 0 0 0 0 0 0 -17.9528703917566 0.9297099056023282 -6.798003828993511 -29.488523963401548 58.08047285307386 -14.500129569970454 74.75568966778877 43.77158140836429 39.1664411220082 -8.26510779806892 -1.521330398746762 -0.35819454600944645 0 0 0 0 0 0 0 0 0 0 0 0 0 0 0 0 0 0 0 0 0 0 0 0 0 0 0 0 0 0 0 0 0 0 0 0 0 0 0 0 0 0 0 0 0
5.366740723532839 -6.201945801549336 3.410947186674195 -0.012537201196659012 -51.00538538952647 -179.9940210235081 40.87590087680109 3.101153253093887 52.066576671331795 -20.299376254353074 64.79565385866191 28.76206372994889 -22.814542354923457 11.61318562242654 -22.75686228426146 0 0 0 -41.15347874169964 2.130207528954987 -52.58513016071885 20.90707302467588 64.33608497022587 -28.322013191582773 23.503940808492228 12.086638495036611 21.8757647542812 0 0 0 1.0653182627566196e-19 -15.214925889577042 -7.976263221939979e-19 0.7846983938769329 4.506463995321165 -0.7299287002260005 0 0 0 17.935325744022837 0.9341101966748726 6.776878333367618 26.80704928220453 58.27986008305013 14.48309628563952 -74.77438400467375 43.74975934495798 -39.19625760272838 8.272305051849253 -1.5203468251960353 0.34415009097249494 0 0 0 0 0 0 0 0 0 0 0 0 0 0 0 0 0 0 0 0 0 0 0 0 0 0 0 0 0 0 0 0 0 0 0 0 0 0 0 0 0 0 0 0 0 0 17.52098252285569 0 0 19.034562911195664 0 0 0 0 0 0 0 0 0 0 -17.9528703917566 0.9297099056023282 -6.798003828993511 -29.48852714287906 58.08047285307386 -14.500132750544292 74.75568966778877 43.77158140836429 39.1664411220082 -8.26510779806892 -1.521330398746762 -0.35819454600944645 0 0 0 0 0 0 0 0 0 0 0 0 0 0 0 0 0 0 0 0 0 0 0 0 0 0 0 0 0 0 0 0 0 0 0 0 0 0 0 0 0 0 0 0 0
5.366740723532839 -6.201945801549336 3.410947186674195 -0.012537201196659012 -51.00538538952647 -179.9940210235081 40.83448336016236 3.3969942472399803 51.93623964026184 -20.299376254353074 64.79565385866191 28.76206372994889 -22.585767246439268 11.580742453797544 -22.956604577015703 0 0 0 -41.11351994757593 2.527546377906123 -52.403051155309754 20.90707302467588 64.33608497022587 -28.322013191582773 23.188060289616157 12.042074200465938 22.15672498316838 0 0 0 1.5966944491363507e-18 -15.464983195171428 -2.1680362812169039e-19 0.7851793182437578 4.906861552447207 -0.724429292799716 0 0 0 17.935325744022837 0.9341101966748726 6.776878333367618 26.79388044543881 58.280808425168246 14.48296804863121 -74.77438400467375 43.74975934495798 -39.19625760272838 8.272305051849253 -1.5203468251960353 0.34415009097249494 0 0 0 0 0 0 0 0 0 0 0 0 0 0 0 0 0 0 0 0 0 0 0 0 0 0 0 0 0 0 0 0 0 0 0 0 0 0 0 0 0 0 0 0 0 0 17.52098252285569 0 0 18.458304151594394 0 0 0 0 0 0 0 0 0 0 -17.9528703917566 0.9297099056023282 -6.798003828993511 -29.488522005353172 58.080466393993625 -14.500127952731992 74.75568966778877 43.77158140836429 39.1664411220082 -8.26510779806892 -1.521330398746762 -0.35819454600944645 0 0 0 0 0 0 0 0 0 0 0 0 0 0 0 0 0 0 0 0 0 0 0 0 0 0 0 0 0 0 0 0 0 0 0 0 0 0 0 0 0 0 0 0 0
